<svg xmlns="http://www.w3.org/2000/svg">

    <symbol id="search" viewBox="0 0 21 22" fill="none">
        <ellipse cx="8.55567" cy="8.77143" rx="7.55567" ry="7.77143" stroke="var(--search-color)" stroke-width="2"/>
        <path d="M15 15.4004L19.6667 20.2004" stroke="var(--search-color)" stroke-width="2" stroke-linecap="round"/>
    </symbol>

    <symbol  id='fb'   viewBox="0 0 26 26" fill="none">
        <path d="M26 13C26 5.81953 20.1805 0 13 0C5.81953 0 0 5.81953 0 13C0 19.4898 4.75312 24.8676 10.9688 25.8426V16.7578H7.66797V13H10.9688V10.1359C10.9688 6.87832 12.9086 5.07812 15.8793 5.07812C17.3012 5.07812 18.7891 5.33203 18.7891 5.33203V8.53125H17.1488C15.534 8.53125 15.0312 9.53418 15.0312 10.5625V13H18.6367L18.0604 16.7578H15.0312V25.8426C21.2469 24.8676 26 19.4898 26 13Z" fill="#3E3E48"/>
    </symbol>

    <symbol  id='fb-2'   viewBox="0 0 26 26" fill="none">
        <path d="M26 13C26 5.81953 20.1805 0 13 0C5.81953 0 0 5.81953 0 13C0 19.4898 4.75312 24.8676 10.9688 25.8426V16.7578H7.66797V13H10.9688V10.1359C10.9688 6.87832 12.9086 5.07812 15.8793 5.07812C17.3012 5.07812 18.7891 5.33203 18.7891 5.33203V8.53125H17.1488C15.534 8.53125 15.0312 9.53418 15.0312 10.5625V13H18.6367L18.0604 16.7578H15.0312V25.8426C21.2469 24.8676 26 19.4898 26 13Z" fill="white"/>
    </symbol>

    <symbol  id='inst'  viewBox="0 0 26 26" fill="none">
        <path d="M13 0C20.1797 0 26 5.8203 26 13C26 20.1797 20.1797 26 13 26C5.8203 26 0 20.1797 0 13C2.57703e-07 5.8203 5.8203 2.57711e-07 13 0ZM12.999 6.06641C11.1174 6.06641 10.8809 6.07475 10.1416 6.1084C9.40361 6.14219 8.89978 6.25925 8.45898 6.43066C8.00297 6.60775 7.61585 6.84494 7.23047 7.23047C6.84499 7.6157 6.60829 8.00235 6.43066 8.45801C6.25881 8.89892 6.14165 9.40303 6.1084 10.1406C6.07532 10.8802 6.06641 11.1171 6.06641 13C6.06641 14.883 6.07489 15.1188 6.1084 15.8584C6.14235 16.5964 6.25937 17.1002 6.43066 17.541C6.6079 17.997 6.84497 18.3842 7.23047 18.7695C7.61559 19.155 8.00242 19.3923 8.45801 19.5693C8.89906 19.7407 9.40287 19.8578 10.1406 19.8916C10.8802 19.9253 11.1171 19.9336 13 19.9336C14.8824 19.9336 15.1182 19.9252 15.8574 19.8916C16.5953 19.8578 17.1 19.7407 17.541 19.5693C17.9968 19.3923 18.3834 19.155 18.7686 18.7695C19.1542 18.3841 19.3917 17.9969 19.5693 17.541C19.7397 17.1001 19.8569 16.5961 19.8916 15.8584C19.9248 15.1188 19.9326 14.883 19.9326 13C19.9326 11.1174 19.9248 10.8808 19.8916 10.1416C19.8569 9.40348 19.7398 8.89886 19.5693 8.45801C19.3917 8.0021 19.1542 7.61578 18.7686 7.23047C18.3829 6.8448 17.9975 6.60761 17.541 6.43066C17.099 6.25921 16.5945 6.1422 15.8564 6.1084C15.1173 6.07476 14.8816 6.06641 12.999 6.06641Z" fill="#3E3E48"/>
        <path d="M12.3779 7.31641C12.5624 7.31612 12.7687 7.31641 13 7.31641C14.851 7.31641 15.0709 7.32323 15.8018 7.35645C16.4774 7.38734 16.8445 7.49986 17.0889 7.59473C17.4123 7.72036 17.6433 7.87075 17.8857 8.11328C18.1284 8.35595 18.2793 8.58757 18.4053 8.91113C18.5001 9.15519 18.6128 9.52199 18.6436 10.1973C18.6768 10.9282 18.6846 11.1487 18.6846 12.999C18.6846 14.8489 18.6768 15.069 18.6436 15.7998C18.6126 16.4751 18.5001 16.8419 18.4053 17.0859C18.2796 17.4095 18.1284 17.6403 17.8857 17.8828C17.6431 18.1254 17.4125 18.2757 17.0889 18.4014C16.8448 18.4967 16.4774 18.6097 15.8018 18.6406C15.0711 18.6738 14.851 18.6807 13 18.6807C11.149 18.6807 10.9291 18.6738 10.1982 18.6406C9.52251 18.6094 9.15563 18.4962 8.91113 18.4014C8.58771 18.2757 8.35683 18.1253 8.11426 17.8828C7.87159 17.6401 7.72068 17.4096 7.59473 17.0859C7.49983 16.8418 7.38722 16.4748 7.35645 15.7988C7.32322 15.068 7.31641 14.8483 7.31641 12.9971C7.31641 11.1458 7.32323 10.927 7.35645 10.1963C7.38733 9.52076 7.49987 9.15358 7.59473 8.90918C7.72039 8.58562 7.87159 8.354 8.11426 8.11133C8.35681 7.86882 8.58775 7.71868 8.91113 7.59277C9.15548 7.49746 9.52252 7.3846 10.1982 7.35352C10.8378 7.32463 11.0861 7.3159 12.3779 7.31445V7.31641ZM12.8184 9.44434C10.9374 9.53992 9.44143 11.0953 9.44141 13C9.44141 14.9663 11.0356 16.5595 13.002 16.5596C14.9683 16.5596 16.5625 14.9663 16.5625 13C16.5625 11.0337 14.9682 9.43951 13.002 9.43945L12.8184 9.44434ZM16.6992 8.4668C16.2399 8.4668 15.8672 8.83935 15.8672 9.29883C15.8672 9.75816 16.2399 10.1309 16.6992 10.1309C17.1585 10.1308 17.5312 9.75815 17.5312 9.29883C17.5312 8.8395 17.1585 8.46681 16.6992 8.4668Z" fill="#3E3E48"/>
        <path d="M12.9986 10.6875C14.275 10.6875 15.3098 11.7222 15.3098 12.9986C15.3098 14.275 14.275 15.3098 12.9986 15.3098C11.7222 15.3098 10.6875 14.275 10.6875 12.9986C10.6875 11.7222 11.7222 10.6875 12.9986 10.6875Z" fill="#3E3E48"/>
    </symbol>

    <symbol  id='inst-2'  viewBox="0 0 26 26" fill="none">
        <path d="M13 0C20.1797 0 26 5.8203 26 13C26 20.1797 20.1797 26 13 26C5.8203 26 0 20.1797 0 13C2.57703e-07 5.8203 5.8203 2.57711e-07 13 0ZM12.999 6.06641C11.1174 6.06641 10.8809 6.07475 10.1416 6.1084C9.40361 6.14219 8.89978 6.25925 8.45898 6.43066C8.00297 6.60775 7.61585 6.84494 7.23047 7.23047C6.84499 7.6157 6.60829 8.00235 6.43066 8.45801C6.25881 8.89892 6.14165 9.40303 6.1084 10.1406C6.07532 10.8802 6.06641 11.1171 6.06641 13C6.06641 14.883 6.07489 15.1188 6.1084 15.8584C6.14235 16.5964 6.25937 17.1002 6.43066 17.541C6.6079 17.997 6.84497 18.3842 7.23047 18.7695C7.61559 19.155 8.00242 19.3923 8.45801 19.5693C8.89906 19.7407 9.40287 19.8578 10.1406 19.8916C10.8802 19.9253 11.1171 19.9336 13 19.9336C14.8824 19.9336 15.1182 19.9252 15.8574 19.8916C16.5953 19.8578 17.1 19.7407 17.541 19.5693C17.9968 19.3923 18.3834 19.155 18.7686 18.7695C19.1542 18.3841 19.3917 17.9969 19.5693 17.541C19.7397 17.1001 19.8569 16.5961 19.8916 15.8584C19.9248 15.1188 19.9326 14.883 19.9326 13C19.9326 11.1174 19.9248 10.8808 19.8916 10.1416C19.8569 9.40348 19.7398 8.89886 19.5693 8.45801C19.3917 8.0021 19.1542 7.61578 18.7686 7.23047C18.3829 6.8448 17.9975 6.60761 17.541 6.43066C17.099 6.25921 16.5945 6.1422 15.8564 6.1084C15.1173 6.07476 14.8816 6.06641 12.999 6.06641Z" fill="white"/>
        <path d="M12.3779 7.31445C12.5624 7.31416 12.7687 7.31445 13 7.31445C14.851 7.31445 15.0709 7.32128 15.8018 7.35449C16.4774 7.38539 16.8445 7.49791 17.0889 7.59277C17.4123 7.7184 17.6433 7.86879 17.8857 8.11133C18.1284 8.354 18.2793 8.58562 18.4053 8.90918C18.5001 9.15324 18.6128 9.52004 18.6436 10.1953C18.6768 10.9262 18.6846 11.1467 18.6846 12.9971C18.6846 14.847 18.6768 15.067 18.6436 15.7979C18.6126 16.4731 18.5001 16.8399 18.4053 17.084C18.2796 17.4075 18.1284 17.6383 17.8857 17.8809C17.6431 18.1234 17.4125 18.2738 17.0889 18.3994C16.8448 18.4947 16.4774 18.6078 15.8018 18.6387C15.0711 18.6719 14.851 18.6787 13 18.6787C11.149 18.6787 10.9291 18.6719 10.1982 18.6387C9.52251 18.6074 9.15563 18.4943 8.91113 18.3994C8.58771 18.2738 8.35683 18.1234 8.11426 17.8809C7.87159 17.6382 7.72068 17.4077 7.59473 17.084C7.49983 16.8399 7.38722 16.4728 7.35645 15.7969C7.32322 15.066 7.31641 14.8464 7.31641 12.9951C7.31641 11.1438 7.32323 10.925 7.35645 10.1943C7.38733 9.51881 7.49987 9.15163 7.59473 8.90723C7.72039 8.58367 7.87159 8.35204 8.11426 8.10938C8.35681 7.86687 8.58775 7.71673 8.91113 7.59082C9.15548 7.49551 9.52252 7.38265 10.1982 7.35156C10.8378 7.32268 11.0861 7.31395 12.3779 7.3125V7.31445ZM12.8184 9.44238C10.9374 9.53797 9.44143 11.0933 9.44141 12.998C9.44141 14.9644 11.0356 16.5576 13.002 16.5576C14.9683 16.5576 16.5625 14.9644 16.5625 12.998C16.5625 11.0318 14.9682 9.43755 13.002 9.4375L12.8184 9.44238ZM16.6992 8.46484C16.2399 8.46484 15.8672 8.83739 15.8672 9.29688C15.8672 9.7562 16.2399 10.1289 16.6992 10.1289C17.1585 10.1289 17.5312 9.75619 17.5312 9.29688C17.5312 8.83754 17.1585 8.46486 16.6992 8.46484Z" fill="white"/>
        <path d="M12.9986 10.6875C14.275 10.6875 15.3098 11.7222 15.3098 12.9986C15.3098 14.275 14.275 15.3098 12.9986 15.3098C11.7222 15.3098 10.6875 14.275 10.6875 12.9986C10.6875 11.7222 11.7222 10.6875 12.9986 10.6875Z" fill="white"/>
    </symbol>

    <symbol id="b"  viewBox="0 0 26 26" fill="none">
        <path d="M13 0C20.1797 0 26 5.82032 26 13V13.0059C26 20.1822 20.1822 26 13.0059 26H12.9941C5.81784 26 0 20.1822 0 13.0059V13C0 5.82032 5.82032 0 13 0ZM9 19H14.0488C14.9101 19 15.6202 18.8775 16.1787 18.7158C16.7371 18.5541 17.2493 18.2608 17.7158 17.8799C18.1103 17.5622 18.4247 17.1501 18.6582 16.665C18.8914 16.1797 19 15.6108 19 14.9697C18.9999 14.0918 18.7609 13.389 18.2998 12.8721C17.8384 12.3554 17.1647 12.0134 16.4414 11.8457V11.7764C16.9583 11.5456 17.4088 11.1835 17.7119 10.6924C18.0147 10.2016 18.1748 9.64136 18.1748 9.01172C18.1748 8.4688 18.0691 7.989 17.8496 7.57324C17.6299 7.15755 17.3 6.8255 16.8555 6.57715C16.4442 6.34614 16.0046 6.18739 15.5352 6.11523C15.0653 6.04286 14.3759 6 13.4648 6H9V19ZM12.7568 13.3057C13.3123 13.3057 13.7554 13.3164 14.0859 13.3252C14.4164 13.3338 14.6762 13.3791 14.8652 13.4541C15.1763 13.5696 15.4099 13.7415 15.5654 13.9668C15.721 14.1921 15.7988 14.5047 15.7988 14.9033C15.7988 15.215 15.7338 15.4947 15.6035 15.7402C15.4728 15.9859 15.2656 16.1716 14.9824 16.2988C14.6602 16.4431 14.3433 16.5644 14.0322 16.5762C13.7209 16.5876 13.1589 16.6367 12.3477 16.6367H12.1006V13.3057H12.7568ZM12.3984 8.36426C12.9536 8.36426 13.3715 8.3762 13.6523 8.38477C13.9327 8.39333 14.1761 8.44768 14.3818 8.54004C14.5983 8.63841 14.7585 8.79923 14.8613 9.01855C14.9641 9.23808 15.0156 9.45302 15.0156 9.66113C15.0156 9.94385 14.9686 10.1927 14.874 10.4062C14.7797 10.6201 14.6072 10.788 14.3574 10.9092C14.1293 11.0192 13.9083 11.1038 13.6943 11.1152C13.4804 11.1269 13.1067 11.1572 12.5732 11.1572H12.1006V8.36426H12.3984Z" fill="#3E3E48"/>
    </symbol>

    <symbol id="b-2"  viewBox="0 0 26 26" fill="none">
        <path d="M13 0C20.1797 0 26 5.82032 26 13V13.0059C26 20.1822 20.1822 26 13.0059 26H12.9941C5.81784 26 0 20.1822 0 13.0059V13C0 5.82032 5.82032 0 13 0ZM9 19H14.0488C14.9101 19 15.6202 18.8775 16.1787 18.7158C16.7371 18.5541 17.2493 18.2608 17.7158 17.8799C18.1103 17.5622 18.4247 17.1501 18.6582 16.665C18.8914 16.1797 19 15.6108 19 14.9697C18.9999 14.0918 18.7609 13.389 18.2998 12.8721C17.8384 12.3554 17.1647 12.0134 16.4414 11.8457V11.7764C16.9583 11.5456 17.4088 11.1835 17.7119 10.6924C18.0147 10.2016 18.1748 9.64136 18.1748 9.01172C18.1748 8.4688 18.0691 7.989 17.8496 7.57324C17.6299 7.15755 17.3 6.8255 16.8555 6.57715C16.4442 6.34614 16.0046 6.18739 15.5352 6.11523C15.0653 6.04286 14.3759 6 13.4648 6H9V19ZM12.7568 13.3057C13.3123 13.3057 13.7554 13.3164 14.0859 13.3252C14.4164 13.3338 14.6762 13.3791 14.8652 13.4541C15.1763 13.5696 15.4099 13.7415 15.5654 13.9668C15.721 14.1921 15.7988 14.5047 15.7988 14.9033C15.7988 15.215 15.7338 15.4947 15.6035 15.7402C15.4728 15.9859 15.2656 16.1716 14.9824 16.2988C14.6602 16.4431 14.3433 16.5644 14.0322 16.5762C13.7209 16.5876 13.1589 16.6367 12.3477 16.6367H12.1006V13.3057H12.7568ZM12.3984 8.36426C12.9536 8.36426 13.3715 8.3762 13.6523 8.38477C13.9327 8.39333 14.1761 8.44768 14.3818 8.54004C14.5983 8.63841 14.7585 8.79923 14.8613 9.01855C14.9641 9.23808 15.0156 9.45302 15.0156 9.66113C15.0156 9.94385 14.9686 10.1927 14.874 10.4062C14.7797 10.6201 14.6072 10.788 14.3574 10.9092C14.1293 11.0192 13.9083 11.1038 13.6943 11.1152C13.4804 11.1269 13.1067 11.1572 12.5732 11.1572H12.1006V8.36426H12.3984Z" fill="white"/>
    </symbol>

    <symbol id="play"  viewBox="0 0 28 30" fill="none">
        <path d="M26.0245 11.8616L4.40955 0.356793C2.41132 -0.706787 0 0.741375 0 3.00503V26.0145C0 28.2782 2.41131 29.7263 4.40954 28.6628L26.0245 17.1581C28.1451 16.0294 28.1451 12.9903 26.0245 11.8616Z" fill="#3E3E48"/>
    </symbol>

    <symbol id="period-start" viewBox="0 0 305 69" fill="none">
        <path d="M0 4C0 1.79086 1.79086 0 4 0H64.7273C66.9364 0 68.7273 1.79086 68.7273 4V38.3164C68.7273 40.5255 66.9364 42.3164 64.7273 42.3164H19.9055C17.6963 42.3164 15.9055 44.1072 15.9055 46.3164V48.8218C15.9055 51.031 17.6963 52.8218 19.9055 52.8218H64.7273C66.9364 52.8218 68.7273 54.6127 68.7273 56.8218V64.7273C68.7273 66.9364 66.9364 68.7273 64.7273 68.7273H4C1.79086 68.7273 0 66.9364 0 64.7273V30.4109C0 28.2018 1.79086 26.4109 4 26.4109H48.8218C51.031 26.4109 52.8218 24.6201 52.8218 22.4109V19.9055C52.8218 17.6963 51.031 15.9055 48.8218 15.9055H4C1.79086 15.9055 0 14.1146 0 11.9055V4Z" fill="#3E3E48"/>
        <path d="M78.5263 4C78.5263 1.79086 80.3171 0 82.5263 0H143.254C145.463 0 147.254 1.79086 147.254 4V64.7273C147.254 66.9364 145.463 68.7273 143.254 68.7273H82.5263C80.3171 68.7273 78.5263 66.9364 78.5263 64.7273V4ZM94.4317 48.8218C94.4317 51.031 96.2226 52.8218 98.4317 52.8218H127.348C129.557 52.8218 131.348 51.031 131.348 48.8218V19.8073C131.348 17.5981 129.557 15.8073 127.348 15.8073H98.4317C96.2226 15.8073 94.4317 17.5981 94.4317 19.8073V48.8218Z" fill="#3E3E48"/>
        <path d="M199.369 48.8218C199.369 51.031 201.16 52.8218 203.369 52.8218H221.78C223.989 52.8218 225.78 54.6127 225.78 56.8218V64.7273C225.78 66.9364 223.989 68.7273 221.78 68.7273H161.053C158.843 68.7273 157.053 66.9364 157.053 64.7273V56.8218C157.053 54.6127 158.843 52.8218 161.053 52.8218H179.463C181.673 52.8218 183.463 51.031 183.463 48.8218V19.9055C183.463 17.6963 181.673 15.9055 179.463 15.9055H161.053C158.843 15.9055 157.053 14.1146 157.053 11.9055V4C157.053 1.79086 158.843 0 161.053 0H195.369C197.578 0 199.369 1.79086 199.369 4V48.8218Z" fill="#3E3E48"/>
        <path d="M235.579 4C235.579 1.79086 237.37 0 239.579 0H300.306C302.515 0 304.306 1.79086 304.306 4V64.7273C304.306 66.9364 302.515 68.7273 300.306 68.7273H239.579C237.37 68.7273 235.579 66.9364 235.579 64.7273V4ZM251.484 48.8218C251.484 51.031 253.275 52.8218 255.484 52.8218H284.401C286.61 52.8218 288.401 51.031 288.401 48.8218V19.8073C288.401 17.5981 286.61 15.8073 284.401 15.8073H255.484C253.275 15.8073 251.484 17.5981 251.484 19.8073V48.8218Z" fill="#3E3E48"/>
    </symbol>

    <symbol id="period-end"  viewBox="0 0 305 69" fill="none" >
        <path d="M0 4C0 1.79086 1.79086 0 4 0H64.7273C66.9364 0 68.7273 1.79086 68.7273 4V38.3164C68.7273 40.5255 66.9364 42.3164 64.7273 42.3164H19.9055C17.6963 42.3164 15.9055 44.1072 15.9055 46.3164V48.8218C15.9055 51.031 17.6963 52.8218 19.9055 52.8218H64.7273C66.9364 52.8218 68.7273 54.6127 68.7273 56.8218V64.7273C68.7273 66.9364 66.9364 68.7273 64.7273 68.7273H4C1.79086 68.7273 0 66.9364 0 64.7273V30.4109C0 28.2018 1.79086 26.4109 4 26.4109H48.8218C51.031 26.4109 52.8218 24.6201 52.8218 22.4109V19.9055C52.8218 17.6963 51.031 15.9055 48.8218 15.9055H4C1.79086 15.9055 0 14.1146 0 11.9055V4Z" fill="#3E3E48"/>
        <path d="M78.5263 4C78.5263 1.79086 80.3171 0 82.5263 0H143.254C145.463 0 147.254 1.79086 147.254 4V64.7273C147.254 66.9364 145.463 68.7273 143.254 68.7273H82.5263C80.3171 68.7273 78.5263 66.9364 78.5263 64.7273V4ZM94.4317 48.8218C94.4317 51.031 96.2226 52.8218 98.4317 52.8218H127.348C129.557 52.8218 131.348 51.031 131.348 48.8218V19.8073C131.348 17.5981 129.557 15.8073 127.348 15.8073H98.4317C96.2226 15.8073 94.4317 17.5981 94.4317 19.8073V48.8218Z" fill="#3E3E48"/>
        <path d="M157.053 4C157.053 1.79086 158.843 0 161.053 0H221.78C223.989 0 225.78 1.79086 225.78 4V38.3164C225.78 40.5255 223.989 42.3164 221.78 42.3164H176.958C174.749 42.3164 172.958 44.1072 172.958 46.3164V48.8218C172.958 51.031 174.749 52.8218 176.958 52.8218H221.78C223.989 52.8218 225.78 54.6127 225.78 56.8218V64.7273C225.78 66.9364 223.989 68.7273 221.78 68.7273H161.053C158.843 68.7273 157.053 66.9364 157.053 64.7273V30.4109C157.053 28.2018 158.843 26.4109 161.053 26.4109H205.874C208.084 26.4109 209.874 24.6201 209.874 22.4109V19.9055C209.874 17.6963 208.084 15.9055 205.874 15.9055H161.053C158.843 15.9055 157.053 14.1146 157.053 11.9055V4Z" fill="#3E3E48"/>
        <path d="M300.306 26.4109C302.515 26.4109 304.306 28.2018 304.306 30.4109V64.7273C304.306 66.9364 302.515 68.7273 300.306 68.7273H239.579C237.37 68.7273 235.579 66.9364 235.579 64.7273V56.8218C235.579 54.6127 237.37 52.8218 239.579 52.8218H284.401C286.61 52.8218 288.401 51.031 288.401 48.8218V46.3164C288.401 44.1072 286.61 42.3164 284.401 42.3164H239.579C237.37 42.3164 235.579 40.5255 235.579 38.3164V4C235.579 1.79086 237.37 0 239.579 0H300.306C302.515 0 304.306 1.79086 304.306 4V11.9055C304.306 14.1146 302.515 15.9055 300.306 15.9055H255.484C253.275 15.9055 251.484 17.6963 251.484 19.9055V22.4109C251.484 24.6201 253.275 26.4109 255.484 26.4109H300.306Z" fill="#3E3E48"/>
    </symbol>

    <symbol id="cases-icon-1"  viewBox="0 0 40 46" fill="none">
        <g filter="url(#filter0_d_3301_1637)">
            <rect x="11" y="11" width="18" height="24" rx="1" stroke="#3E3E48" stroke-width="2" shape-rendering="crispEdges"/>
        </g>
        <circle cx="15" cy="17" r="1" fill="#3E3E48"/>
        <path d="M19 17H25.5" stroke="#3E3E48" stroke-linecap="round"/>
        <circle cx="15" cy="23" r="1" fill="#3E3E48"/>
        <path d="M19 23H25.5" stroke="#3E3E48" stroke-linecap="round"/>
        <circle cx="15" cy="29" r="1" fill="#3E3E48"/>
        <path d="M19 29H25.5" stroke="#3E3E48" stroke-linecap="round"/>
        <rect x="1" y="2" width="6" height="6" rx="2" fill="#3E3E48"/>
        <defs>
            <filter id="filter0_d_3301_1637" x="0" y="0" width="40" height="46" filterUnits="userSpaceOnUse" color-interpolation-filters="sRGB">
                <feFlood flood-opacity="0" result="BackgroundImageFix"/>
                <feColorMatrix in="SourceAlpha" type="matrix" values="0 0 0 0 0 0 0 0 0 0 0 0 0 0 0 0 0 0 127 0" result="hardAlpha"/>
                <feOffset/>
                <feGaussianBlur stdDeviation="5"/>
                <feComposite in2="hardAlpha" operator="out"/>
                <feColorMatrix type="matrix" values="0 0 0 0 1 0 0 0 0 1 0 0 0 0 1 0 0 0 1 0"/>
                <feBlend mode="normal" in2="BackgroundImageFix" result="effect1_dropShadow_3301_1637"/>
                <feBlend mode="normal" in="SourceGraphic" in2="effect1_dropShadow_3301_1637" result="shape"/>
            </filter>
        </defs>
    </symbol>

    <symbol id="cases-icon-2"  viewBox="0 0 42 42" fill="none">
        <g filter="url(#filter0_d_3301_1654)">
            <path d="M31 21C31 15.4772 26.5228 11 21 11M21 31C15.4772 31 11 26.5228 11 21" stroke="#3E3E48" stroke-width="2" stroke-linecap="round"/>
            <circle cx="15" cy="15" r="4.25" stroke="#3E3E48" stroke-width="1.5"/>
            <circle cx="27" cy="27" r="4.25" stroke="#3E3E48" stroke-width="1.5"/>
            <path d="M25 27H29" stroke="#3E3E48" stroke-linecap="round"/>
            <path d="M13 14.999H17M14.995 17.0039L14.995 13.0039" stroke="#3E3E48" stroke-linecap="round"/>
        </g>
        <rect x="3" y="2" width="6" height="6" rx="2" fill="#3E3E48"/>
        <defs>
            <filter id="filter0_d_3301_1654" x="0" y="0" width="42" height="42" filterUnits="userSpaceOnUse" color-interpolation-filters="sRGB">
                <feFlood flood-opacity="0" result="BackgroundImageFix"/>
                <feColorMatrix in="SourceAlpha" type="matrix" values="0 0 0 0 0 0 0 0 0 0 0 0 0 0 0 0 0 0 127 0" result="hardAlpha"/>
                <feOffset/>
                <feGaussianBlur stdDeviation="5"/>
                <feComposite in2="hardAlpha" operator="out"/>
                <feColorMatrix type="matrix" values="0 0 0 0 1 0 0 0 0 1 0 0 0 0 1 0 0 0 1 0"/>
                <feBlend mode="normal" in2="BackgroundImageFix" result="effect1_dropShadow_3301_1654"/>
                <feBlend mode="normal" in="SourceGraphic" in2="effect1_dropShadow_3301_1654" result="shape"/>
            </filter>
        </defs>
    </symbol>

    <symbol id="cases-icon-3"  viewBox="0 0 42 49" fill="none" >
        <g filter="url(#filter0_d_3301_1666)">
            <path d="M29 23V13C29 11.8954 28.1046 11 27 11H13C11.8954 11 11 11.8954 11 13V33C11 34.1046 11.8954 35 13 35H15.95" stroke="#3E3E48" stroke-width="2" stroke-linecap="round"/>
            <circle cx="25" cy="32" r="6.25" stroke="#3E3E48" stroke-width="1.5"/>
            <path d="M22 32L24.25 35L28 30" stroke="#3E3E48" stroke-width="2" stroke-linecap="round" stroke-linejoin="round"/>
        </g>
        <rect x="2" width="6" height="6" rx="2" fill="#3E3E48"/>
        <defs>
            <filter id="filter0_d_3301_1666" x="0" y="0" width="42" height="49" filterUnits="userSpaceOnUse" color-interpolation-filters="sRGB">
                <feFlood flood-opacity="0" result="BackgroundImageFix"/>
                <feColorMatrix in="SourceAlpha" type="matrix" values="0 0 0 0 0 0 0 0 0 0 0 0 0 0 0 0 0 0 127 0" result="hardAlpha"/>
                <feOffset/>
                <feGaussianBlur stdDeviation="5"/>
                <feComposite in2="hardAlpha" operator="out"/>
                <feColorMatrix type="matrix" values="0 0 0 0 1 0 0 0 0 1 0 0 0 0 1 0 0 0 1 0"/>
                <feBlend mode="normal" in2="BackgroundImageFix" result="effect1_dropShadow_3301_1666"/>
                <feBlend mode="normal" in="SourceGraphic" in2="effect1_dropShadow_3301_1666" result="shape"/>
            </filter>
        </defs>
    </symbol>

    <symbol id="slide-prev"  viewBox="0 0 52 52" fill="none">
        <rect x="-1" y="1" width="50" height="50" rx="25" transform="matrix(-1 0 0 1 50 0)" stroke="white" stroke-width="2"/>
        <path d="M22.0927 26.0312H38.4355" stroke="white" stroke-width="2.84224" stroke-linecap="round" stroke-linejoin="round"/>
        <path d="M19.25 20.3477L13.5655 26.0321L19.25 31.7166" stroke="white" stroke-width="2.84224" stroke-linecap="round" stroke-linejoin="round"/>
    </symbol>

    <symbol id="slide-next"  viewBox="0 0 52 52" fill="none">
        <rect x="1" y="1" width="50" height="50" rx="25" stroke="white" stroke-width="2"/>
        <path d="M29.9073 26.0312H13.5645" stroke="white" stroke-width="2.84224" stroke-linecap="round" stroke-linejoin="round"/>
        <path d="M32.75 20.3477L38.4345 26.0321L32.75 31.7166" stroke="white" stroke-width="2.84224" stroke-linecap="round" stroke-linejoin="round"/>
    </symbol>


    <symbol id="arrow-bottom"  viewBox="0 0 20 39" fill="none">
        <path d="M9.67187 24.9922L9.67188 1.5" stroke="#6D7592" stroke-width="3" stroke-linecap="round" stroke-linejoin="round"/>
        <path d="M17.8428 29.0781L9.67158 37.2493L1.50039 29.0781" stroke="#6D7592" stroke-width="3" stroke-linecap="round" stroke-linejoin="round"/>
    </symbol>

    <symbol id="wp"  viewBox="0 0 31 31" fill="none">
        <path d="M15.2624 0C6.83019 0 0 6.83019 0 15.2624C0 23.6875 6.83019 30.5177 15.2553 30.5177H15.2696C23.6947 30.5177 30.5249 23.6875 30.5249 15.2624C30.5249 6.83019 23.6875 0 15.2624 0V0Z" fill="#4EE818"/>
        <path fill-rule="evenodd" clip-rule="evenodd" d="M15.671 5C10.5242 5 6.34195 9.35698 6.34195 14.7391C6.34195 16.5789 6.83295 18.2998 7.68343 19.7735L6 25L11.1643 23.27C12.497 24.0389 14.0401 24.4783 15.671 24.4783C20.8265 24.4783 25 20.1213 25 14.7391C25 9.35698 20.8265 5 15.671 5ZM15.671 22.849C14.0928 22.849 12.6285 22.3547 11.401 21.5126L8.41117 22.5103L9.3844 19.4989C8.45501 18.1533 7.90263 16.5149 7.90263 14.7391C7.90263 10.2723 11.3922 6.62929 15.671 6.62929C19.9585 6.62929 23.4393 10.2723 23.4393 14.7391C23.4393 19.2151 19.9585 22.849 15.671 22.849ZM20.0461 16.9542C19.8094 16.8169 18.6608 16.1762 18.4504 16.0847C18.2312 15.9931 18.0734 15.9382 17.9068 16.1854C17.7402 16.4233 17.2667 16.9725 17.1177 17.1281C16.9774 17.2929 16.8371 17.3021 16.6004 17.1739C16.3636 17.0366 15.6096 16.7437 14.7328 15.865C14.0489 15.1785 13.593 14.3455 13.4702 14.0892C13.3387 13.833 13.4702 13.7048 13.593 13.5858C13.6982 13.476 13.8385 13.3021 13.9612 13.1648C14.084 13.0275 14.1278 12.9268 14.2155 12.762C14.3032 12.5973 14.2681 12.4508 14.2155 12.3227C14.1541 12.1945 13.7245 10.9588 13.5404 10.4462C13.365 9.94279 13.1634 10.016 13.0231 10.016C12.8828 10.0069 12.725 9.97941 12.5671 9.97941C12.4093 9.97025 12.1463 10.0252 11.9183 10.2632C11.6904 10.5011 11.0591 11.0778 11.0152 12.3043C10.9714 13.5217 11.778 14.7391 11.892 14.913C12.006 15.0778 13.4439 17.7323 15.8288 18.8215C18.2137 19.9108 18.2224 19.5812 18.6608 19.5538C19.0992 19.5355 20.09 19.0137 20.3092 18.4371C20.5284 17.8696 20.5459 17.3661 20.4933 17.2654C20.4407 17.1556 20.2829 17.0915 20.0461 16.9542Z" fill="white"/>
    </symbol>

    <symbol id="tg"  viewBox="0 0 31 31" fill="none">
        <path d="M15.2624 0C6.8323 0 0 6.8323 0 15.2624C0 23.6862 6.8323 30.5185 15.256 30.5185H15.2688C23.6989 30.5185 30.5249 23.6862 30.5249 15.2624C30.5249 6.8323 23.6926 0 15.2624 0Z" fill="#51B6FF"/>
        <path d="M21.6394 9.00926L7.14393 14.4994C6.35141 14.7295 6.37698 15.5092 6.96498 15.7009L10.5952 16.8322L11.9885 21.0952C12.1547 21.5618 12.2953 21.7343 12.5829 21.7407C12.8833 21.7471 12.9984 21.6321 13.3179 21.3572C13.6822 21.0121 14.2447 20.4625 15.1331 19.5996L18.9103 22.3926C19.607 22.7761 20.1119 22.578 20.2844 21.7471L22.6492 10.0319C22.9049 9.00925 22.3041 8.70886 21.6394 9.00926ZM11.1641 16.5702L19.4216 11.3932C19.8307 11.1184 19.9585 11.4252 19.7731 11.6361L12.9217 17.7973L12.5701 20.8779L11.1641 16.5702Z" fill="white"/>
    </symbol>


    <symbol id="viber" viewBox="0 0 31 31" fill="none">
        <path d="M15.2624 0C6.8323 0 0 6.8323 0 15.2624C0 23.6862 6.8323 30.5185 15.256 30.5185H15.2688C23.6989 30.5185 30.5249 23.6862 30.5249 15.2624C30.5249 6.8323 23.6926 0 15.2624 0Z" fill="#8976FF"/>
        <path d="M21.2404 9.57984C20.5861 9.0427 19.8185 8.7168 19.0006 8.5116C16.9307 7.99257 14.8419 7.86582 12.7216 8.14345C11.652 8.28226 10.6139 8.55385 9.6639 9.06685C8.544 9.67037 7.77013 10.5334 7.43039 11.7405C7.19131 12.5975 7.07177 13.4726 7.02773 14.3538C6.95852 15.6634 7.00256 16.961 7.3486 18.2344C7.75126 19.7071 8.63208 20.7934 10.1295 21.3728C10.2931 21.4331 10.4503 21.5237 10.6139 21.584C10.7649 21.6444 10.809 21.7409 10.809 21.8979C10.8027 22.9178 10.8027 23.9378 10.8027 25C11.199 24.6379 11.4696 24.3663 11.6709 24.1551C12.2623 23.5153 12.8223 22.9782 13.4388 22.3686C13.7471 22.0608 13.6213 22.0729 14.1058 22.085C14.672 22.091 15.5717 22.1151 16.1379 22.0729C17.2201 21.9884 18.2959 21.8556 19.3403 21.5539C20.6616 21.1736 21.7249 20.4916 22.2659 19.2061C22.4106 18.8621 22.5428 18.5241 22.6371 18.162C23.153 16.1161 23.0838 14.0641 22.6497 12.0181C22.4484 11.0645 22.0269 10.2196 21.2404 9.57984ZM14.6468 10.8171C14.6594 10.6179 14.779 10.5455 14.974 10.5515C16.6161 10.63 17.8555 11.1007 18.8119 12.3319C19.3718 13.0501 19.6738 14.0279 19.699 14.9331C19.699 15.0659 19.7053 15.1987 19.699 15.3315C19.6927 15.4824 19.6235 15.597 19.4473 15.597C19.2711 15.6031 19.1831 15.5065 19.1705 15.3375C19.1264 14.6676 18.988 14.0218 18.7238 13.4002C18.2079 12.1992 17.2264 11.5534 15.9555 11.2395C15.622 11.1551 15.2823 11.0887 14.9362 11.0585C14.779 11.0464 14.6405 11.0162 14.6468 10.8171ZM16.3078 12.4949C15.9743 12.3802 15.6346 12.2957 15.2823 12.2414C15.1124 12.2173 14.9929 12.1328 15.0243 11.9396C15.0558 11.7646 15.1753 11.6922 15.3578 11.7043C16.5028 11.8129 17.4025 12.2112 18.0191 13.1708C18.3085 13.6175 18.4784 14.2451 18.4532 14.7219C18.4344 15.0599 18.384 15.1444 18.1827 15.1383C17.8933 15.1323 17.931 14.903 17.9122 14.734C17.8744 14.4745 17.8178 14.2149 17.7423 13.9675C17.5347 13.2372 17.0565 12.7484 16.3078 12.4949ZM17.283 14.3538C17.2704 14.4503 17.2704 14.5107 17.2578 14.571C17.2264 14.6978 17.1446 14.7702 17.0062 14.7702C16.8678 14.7762 16.7923 14.6978 16.7545 14.5771C16.7293 14.4986 16.7231 14.4141 16.7042 14.3296C16.6161 13.883 16.3518 13.5933 15.8863 13.4726C15.8296 13.4605 15.773 13.4545 15.7164 13.4364C15.5717 13.4002 15.3892 13.3941 15.3829 13.1889C15.3829 13.02 15.5151 12.9234 15.7541 12.9053C15.9177 12.8993 16.1757 12.9777 16.3204 13.0441C16.9244 13.3278 17.2075 13.7261 17.283 14.3538ZM19.7053 19.0371C19.3844 19.7312 18.837 20.1899 18.0757 20.3951C17.7989 20.4675 17.5284 20.4071 17.2767 20.3045C13.7912 18.8802 11.2745 16.5325 9.84635 13.1407C9.74569 12.8993 9.68277 12.6458 9.69535 12.4104C9.69535 11.5353 10.4944 10.7326 11.3689 10.6843C11.608 10.6722 11.8156 10.7507 11.9918 10.9076C12.6084 11.4568 13.1054 12.1026 13.464 12.8329C13.659 13.2252 13.5773 13.5028 13.2249 13.7864C13.1683 13.8347 13.1054 13.877 13.0488 13.9132C12.5769 14.2451 12.4762 14.5831 12.6964 15.0961C13.0676 15.9471 13.6653 16.617 14.4707 17.1119C14.779 17.2929 15.0872 17.474 15.4396 17.5706C15.7604 17.6611 16.0184 17.5645 16.226 17.3231C16.2449 17.2929 16.2701 17.2628 16.2889 17.2386C16.7419 16.6411 17.2201 16.5385 17.8744 16.9248C18.4281 17.2567 18.9566 17.637 19.4599 18.0413C19.7933 18.3189 19.8814 18.6448 19.7053 19.0371Z" fill="white"/>
    </symbol>

    <symbol id="remove"  viewBox="0 0 54 54" fill="none">
        <rect x="1.5" y="1.5" width="51" height="51" rx="19.6972" stroke="#3E3E48" stroke-width="3"/>
        <path d="M21.5 21.5L32.5 32.5M21.5 32.5L32.5 21.5" stroke="#3E3E48" stroke-width="3" stroke-linecap="round"/>
    </symbol>

    <symbol id="form-name"  viewBox="0 0 24 24" fill="none">
        <path d="M9 16C10 16 10.8846 16 12 16C13.1154 16 14 16 15 16" stroke="#1C274C" stroke-width="1.5" stroke-linecap="round"/>
        <path d="M16 10.5C16 11.3284 15.5523 12 15 12C14.4477 12 14 11.3284 14 10.5C14 9.67157 14.4477 9 15 9C15.5523 9 16 9.67157 16 10.5Z" fill="#1C274C"/>
        <ellipse cx="9" cy="10.5" rx="1" ry="1.5" fill="#1C274C"/>
        <path d="M7 3.33782C8.47087 2.48697 10.1786 2 12 2C17.5228 2 22 6.47715 22 12C22 17.5228 17.5228 22 12 22C6.47715 22 2 17.5228 2 12C2 10.1786 2.48697 8.47087 3.33782 7" stroke="#1C274C" stroke-width="1.5" stroke-linecap="round"/>
    </symbol>

    <symbol id="form-mail"  viewBox="0 0 24 24" fill="none">
        <path d="M22 12C22 15.7712 22 17.6569 20.8284 18.8284C19.6569 20 17.7712 20 14 20H10C6.22876 20 4.34315 20 3.17157 18.8284C2 17.6569 2 15.7712 2 12C2 8.22876 2 6.34315 3.17157 5.17157C4.34315 4 6.22876 4 10 4H14C17.7712 4 19.6569 4 20.8284 5.17157C21.4816 5.82475 21.7706 6.69989 21.8985 8" stroke="#1C274C" stroke-width="1.5" stroke-linecap="round"/>
        <path d="M18 8L15.8411 9.79908C14.0045 11.3296 13.0861 12.0949 12 12.0949C11.3507 12.0949 10.7614 11.8214 10 11.2744M6 8L6.9 8.75L7.8 9.5" stroke="#1C274C" stroke-width="1.5" stroke-linecap="round"/>
    </symbol>


</svg>


