<svg width="39" height="46" viewBox="0 0 39 46" fill="none" xmlns="http://www.w3.org/2000/svg">
<path fill-rule="evenodd" clip-rule="evenodd" d="M3.27491 0.00577354H31.9983L35.8653 0.000162125C38.2625 0.000162125 39.581 2.35554 38.7514 4.31681L37.1599 8.35817C36.8439 9.3668 36.0248 10.1532 34.9967 10.4233L34.2323 10.6294L13.5018 16.2089L8.45786 17.5675C8.42529 17.5769 8.39252 17.5858 8.35942 17.5941L8.35691 17.5947C8.1155 17.6553 7.86286 17.6875 7.60275 17.6875C6.33576 17.6875 5.24692 16.9248 4.76944 15.8338L4.7661 15.8262C4.73687 15.7588 4.70987 15.6901 4.68537 15.6203L3.61963 12.902L3.60082 12.8952L0.0525618 3.8735L0.0885887 3.82772C0.0308706 3.59177 0 3.34538 0 3.09168C0 1.38452 1.38448 0.000162125 3.09152 0.000162125C3.15311 0.000162125 3.21416 0.00220871 3.27491 0.00577354Z" fill="#3E3E48"/>
<path fill-rule="evenodd" clip-rule="evenodd" d="M34.2461 18.8265L34.2416 18.8378C34.2271 18.8762 34.2122 18.9143 34.1962 18.9519L31.2439 26.3779C30.928 27.3866 30.1089 28.1729 29.0808 28.4431L29.0805 28.4433L13.1807 32.7259C13.1481 32.7352 13.1153 32.744 13.0822 32.7524L13.0798 32.7531C12.8383 32.8136 12.5857 32.8457 12.3256 32.8457C11.0586 32.8457 9.96978 32.0831 9.49226 30.9921L9.49184 30.9919L9.48892 30.9845C9.45968 30.917 9.43272 30.8484 9.40822 30.7785L7.04466 24.7501C7.0207 24.6941 6.99843 24.6373 6.9778 24.5796L6.97469 24.5716C6.85968 24.2479 6.79688 23.8993 6.79688 23.5361C6.79688 22.1495 7.71039 20.9758 8.96821 20.584L8.9693 20.5819L9.02994 20.5656C9.0637 20.5558 9.09764 20.5467 9.13184 20.5381L30.5043 14.7738C30.5289 14.7668 30.5536 14.76 30.5785 14.7537L30.5854 14.7518C30.8292 14.69 31.0847 14.6571 31.3478 14.6571C33.0548 14.6571 34.4393 16.0415 34.4393 17.7486C34.4393 18.1277 34.371 18.4909 34.2461 18.8265Z" fill="#3E3E48"/>
<path fill-rule="evenodd" clip-rule="evenodd" d="M22.91 45.084H15.8982L15.8935 45.0808C14.6492 45.05 13.5872 44.2837 13.1257 43.2003L13.0882 43.1748C12.5843 41.9361 12.0756 40.6862 11.7067 39.6365L11.7036 39.6284L11.7038 39.628C11.591 39.3035 11.5306 38.9547 11.5333 38.5917C11.5431 37.2051 12.4649 36.0379 13.7255 35.655L13.7265 35.653L13.7873 35.637C13.821 35.6276 13.8551 35.6187 13.8894 35.6103L24.8069 32.6782C25.0717 32.6068 25.087 32.5801 25.418 32.5801C27.1252 32.5801 28.5095 33.9644 28.5095 35.6715C28.5095 36.0409 28.4446 36.3952 28.3256 36.7236L25.7518 43.2157L25.7476 43.2185C25.2728 44.3137 24.1826 45.0803 22.9135 45.0817L22.91 45.084Z" fill="#3E3E48"/>
</svg>
